<?xml version="1.0" standalone="no"?>
<!DOCTYPE svg PUBLIC "-//W3C//DTD SVG 20010904//EN"
 "http://www.w3.org/TR/2001/REC-SVG-20010904/DTD/svg10.dtd">
<svg version="1.0" xmlns="http://www.w3.org/2000/svg"
 width="300.000000pt" height="225.000000pt" viewBox="0 0 300.000000 225.000000"
 preserveAspectRatio="xMidYMid meet">
<metadata>
Created by potrace 1.10, written by Peter Selinger 2001-2011
</metadata>
<g transform="translate(0.000000,225.000000) scale(0.100000,-0.100000)"
fill="#000000" stroke="none">
<path d="M1110 2110 c-147 -16 -204 -44 -294 -140 -100 -108 -155 -200 -221
-370 -55 -142 -65 -190 -76 -360 -5 -85 -12 -198 -16 -251 -5 -85 -2 -108 20
-185 14 -49 32 -123 41 -165 20 -96 24 -107 52 -146 47 -62 254 -153 418 -183
75 -14 317 -9 516 10 107 10 246 42 355 81 100 35 127 41 210 48 74 6 80 8 79
28 0 17 7 22 38 27 55 9 94 50 129 136 62 151 89 348 89 648 0 278 -35 378
-184 528 -70 70 -96 88 -196 136 -133 65 -283 115 -384 128 -39 5 -104 14
-144 20 -101 14 -343 20 -432 10z m422 -55 c237 -27 332 -54 527 -147 87 -41
115 -61 175 -122 85 -87 133 -164 155 -249 23 -90 21 -496 -4 -634 -32 -179
-83 -321 -123 -342 -10 -5 -53 -14 -97 -20 -49 -7 -90 -19 -107 -31 -30 -22
-222 -89 -344 -119 -44 -11 -121 -23 -170 -26 -49 -3 -129 -10 -179 -15 -118
-13 -224 -12 -305 0 -94 15 -244 66 -328 112 -83 46 -103 75 -122 179 -6 35
-23 102 -37 148 l-26 85 11 245 c6 135 18 273 26 306 31 134 124 337 202 441
96 127 163 174 275 193 87 14 327 12 471 -4z"/>
<path d="M1099 1775 c-135 -44 -255 -138 -312 -244 -37 -67 -57 -190 -57 -351
0 -223 55 -358 176 -439 62 -40 174 -65 270 -59 64 4 81 10 129 42 64 42 102
91 156 201 53 108 59 146 26 178 -37 38 -245 97 -341 97 -69 0 -104 -46 -68
-90 14 -18 33 -24 98 -30 69 -7 182 -33 207 -47 12 -7 -63 -135 -106 -180 -50
-52 -92 -67 -161 -59 -88 11 -142 34 -186 79 -75 77 -103 231 -81 437 19 173
74 256 219 328 148 73 256 53 328 -60 30 -47 74 -53 100 -13 22 34 5 82 -49
136 -90 90 -217 117 -348 74z m226 -26 c59 -22 138 -90 150 -130 8 -25 -14
-53 -36 -44 -8 3 -26 23 -40 44 -65 93 -201 108 -344 37 -183 -90 -235 -197
-235 -479 0 -203 55 -327 169 -378 25 -11 79 -22 125 -25 71 -6 87 -4 123 14
23 12 55 38 72 58 44 54 93 151 89 177 -4 32 -63 57 -179 76 -104 18 -126 29
-115 57 16 41 306 -15 357 -69 24 -26 22 -62 -10 -128 -54 -112 -87 -156 -153
-205 -68 -50 -120 -60 -223 -44 -96 15 -149 41 -209 103 -54 55 -75 99 -101
207 -17 74 -14 284 5 385 29 151 149 278 324 341 80 29 160 30 231 3z"/>
<path d="M1973 1728 c-53 -58 -103 -154 -138 -266 -68 -218 -87 -267 -112
-293 -20 -22 -23 -33 -18 -60 12 -65 -67 -266 -126 -321 -47 -44 -31 -101 30
-101 64 0 128 96 190 286 l36 108 155 1 155 0 3 -23 c1 -13 12 -64 23 -114 16
-67 20 -108 15 -162 -4 -57 -3 -75 10 -87 21 -22 60 -20 84 4 43 43 19 234
-79 655 -30 129 -100 324 -130 365 -25 34 -70 38 -98 8z m81 -30 c44 -70 124
-317 150 -463 8 -49 29 -153 46 -230 33 -151 37 -210 18 -262 -13 -35 -41 -45
-52 -17 -3 9 -6 50 -6 92 -1 94 -39 259 -66 279 -13 9 -58 13 -159 13 -167 0
-169 -1 -205 -115 -23 -73 -89 -219 -112 -246 -26 -31 -52 -39 -70 -22 -16 14
-15 19 22 71 50 70 98 193 109 282 5 41 17 79 29 96 12 16 44 103 72 194 87
276 175 405 224 328z"/>
<path d="M1970 1558 c-32 -53 -110 -294 -110 -340 0 -14 7 -29 16 -32 9 -3 67
-6 129 -6 146 0 145 -2 111 147 -39 169 -78 263 -111 263 -9 0 -24 -15 -35
-32z m77 -76 c26 -78 73 -257 73 -277 0 -3 -57 -5 -126 -5 -116 0 -126 1 -119
18 4 9 25 73 46 142 37 122 76 220 88 220 3 0 21 -44 38 -98z"/>
</g>
</svg>
